<svg xmlns="http://www.w3.org/2000/svg" fill="none" viewBox="-0.75 -0.75 21 21" id="Cloud-Add--Streamline-Core" height="21" width="21">
  <desc>
    Cloud Add Streamline Icon: https://streamlinehq.com
  </desc>
  <g id="cloud-add--cloud-network-internet-add-server-plus">
    <path id="Vector" fill="#d7e0ff" d="M15.854335714285714 7.806894642857142c-0.06253928571428571 -0.018678214285714284 -0.11853214285714285 -0.05485071428571428 -0.16115357142857142 -0.1042692857142857 -0.04262142857142857 -0.04941857142857142 -0.07033928571428572 -0.11000785714285713 -0.07967142857142857 -0.1746225 -0.11198571428571429 -1.2272325 -0.6412714285714285 -2.3789860714285713 -1.4996892857142856 -3.263185714285714 -0.85839 -0.8841996428571428 -1.993944642857143 -1.4474014285714287 -3.2173189285714288 -1.595685 -1.2233742857142857 -0.1482975 -2.4606214285714283 0.12729321428571427 -3.5053896428571427 0.7808217857142857 -1.0447682142857142 0.6535146428571428 -1.8339332142857143 1.6454378571428572 -2.23587 2.8103817857142857 -0.026603571428571424 0.05432142857142857 -0.06818035714285714 0.0998957142857143 -0.11984142857142857 0.13134642857142856 -0.051675 0.031436785714285716 -0.11124749999999999 0.04745464285714286 -0.17172535714285714 0.046131428571428566 -0.5826460714285714 0.03911142857142857 -1.151892857142857 0.19261821428571427 -1.6752171428571427 0.45173142857142856 -0.5233382142857143 0.25911321428571427 -0.9905025000000001 0.6187628571428572 -1.3748475 1.0584321428571428 -0.7761947142857142 0.8879325 -1.1678731071428572 2.047848214285714 -1.0888646785714287 3.2245617857142856 0.07900842857142856 1.1767275 0.6222324642857142 2.2738671428571426 1.5101621785714285 3.0500646428571425 0.8879464285714285 0.7762392857142857 2.047848214285714 1.1679107142857144 3.2245757142857143 1.0889357142857143h9.545486785714285c0.9307071428571428 -0.005571428571428571 1.8270107142857144 -0.35225357142857144 2.5191214285714283 -0.9743035714285714 0.6922499999999999 -0.6220082142857143 1.132392857142857 -1.476275357142857 1.2369964285714286 -2.401007142857143 0.10474285714285714 -0.9247457142857142 -0.13329642857142857 -1.8557592857142857 -0.6689892857142857 -2.6167607142857143s-1.33185 -1.2991596428571428 -2.237764285714286 -1.5125732142857142Z" stroke-width="1.5"></path>
    <path id="Vector_2" stroke="#6132e2" stroke-linecap="round" stroke-linejoin="round" d="M13.081714285714284 12.930171428571429H6.418243928571428" stroke-width="1.5"></path>
    <path id="Vector_3" stroke="#6132e2" stroke-linecap="round" stroke-linejoin="round" d="M9.75 9.598512857142856v6.663512142857143" stroke-width="1.5"></path>
    <path id="Vector_4" stroke="#6132e2" stroke-linecap="round" stroke-linejoin="round" d="M5.459484642857142 15.311539285714286c-1.1767275 0.078975 -2.336629285714286 -0.31269642857142854 -3.2245757142857143 -1.0889357142857143C1.3469792142857142 13.44640607142857 0.8037551785714285 12.349266428571427 0.72474675 11.172538928571427c-0.07900842857142856 -1.1767135714285715 0.3126699642857143 -2.336629285714286 1.0888646785714287 -3.2245617857142856 0.384345 -0.4396692857142857 0.8515092857142856 -0.7993189285714285 1.3748475 -1.0584321428571428 0.5233242857142857 -0.25911321428571427 1.0925710714285715 -0.41262 1.6752171428571427 -0.45173142857142856 0.06047785714285714 0.0013232142857142856 0.12005035714285714 -0.014694642857142858 0.17172535714285714 -0.046131428571428566 0.051661071428571424 -0.03145071428571428 0.0932517857142857 -0.077025 0.11984142857142857 -0.13134642857142856 0.4019367857142857 -1.1649439285714285 1.1911017857142856 -2.1568671428571426 2.23587 -2.8103817857142857 1.0447682142857142 -0.6535285714285715 2.282015357142857 -0.9291192857142857 3.5053896428571427 -0.7808217857142857 1.2233742857142857 0.14828357142857143 2.3589289285714283 0.7114853571428571 3.2173189285714288 1.595685 0.858417857142857 0.8841996428571428 1.3877035714285713 2.035953214285714 1.4996892857142856 3.263185714285714 0.009332142857142857 0.06461464285714286 0.03705 0.12520392857142856 0.07967142857142857 0.1746225 0.04262142857142857 0.04941857142857142 0.09861428571428571 0.08559107142857142 0.16115357142857142 0.1042692857142857 0.9059142857142857 0.21341357142857142 1.7020714285714285 0.7515717857142857 2.237764285714286 1.5125732142857142 0.5356928571428571 0.7610014285714285 0.7737321428571429 1.6920149999999998 0.6689892857142857 2.6167607142857143 -0.10460357142857142 0.9247317857142857 -0.5447464285714285 1.7789989285714287 -1.2369964285714286 2.401007142857143 -0.6921107142857142 0.62205 -1.5884142857142858 0.9687321428571428 -2.5191214285714283 0.9743035714285714" stroke-width="1.5"></path>
  </g>
</svg>