<svg xmlns="http://www.w3.org/2000/svg" fill="none" viewBox="-0.75 -0.75 21 21" id="Dashboard-3--Streamline-Flex" height="21" width="21">
  <desc>
    Dashboard 3 Streamline Icon: https://streamlinehq.com
  </desc>
  <g id="dashboard-3--app-application-dashboard-home-layout-vertical">
    <path id="Intersect" fill="#ffffff" d="M1.2410231785714285 17.54805c0.08584875 0.4263535714285714 0.73122075 0.7692749999999999 1.5332557500000001 0.8167714285714286 0.5957250000000001 0.035378571428571426 1.2073703571428571 0.06560357142857143 1.8309942857142856 0.06560357142857143 0.62361 0 1.2352692857142857 -0.030225 1.8309942857142856 -0.06560357142857143 0.8020210714285715 -0.047496428571428564 1.4474014285714287 -0.3904178571428571 1.5332571428571429 -0.8167714285714286 0.063375 -0.3147857142857143 0.11688857142857141 -0.6380678571428571 0.11688857142857141 -0.9674785714285714 0 -0.32955 -0.05351357142857143 -0.6526928571428572 -0.11688857142857141 -0.9674785714285714 -0.08585571428571429 -0.4263535714285714 -0.7312360714285714 -0.7692749999999999 -1.5332571428571429 -0.8167714285714286 -0.5957250000000001 -0.035378571428571426 -1.2073842857142858 -0.06560357142857143 -1.8309942857142856 -0.06560357142857143 -0.6236239285714286 0 -1.2352692857142857 0.030225 -1.8309942857142856 0.06560357142857143 -0.8020349999999999 0.047496428571428564 -1.4474069999999999 0.3904178571428571 -1.5332571428571429 0.8167714285714286 -0.063375 0.3147857142857143 -0.11689135714285713 0.6379285714285714 -0.11689135714285713 0.9674785714285714 0 0.3294107142857143 0.053516357142857136 0.6526928571428572 0.11689274999999999 0.9674785714285714Z" stroke-width="1.5"></path>
    <path id="Intersect_2" fill="#ffffff" d="M18.28905 2.0034439285714285c-0.0859392857142857 -0.4264092857142857 -0.7327821428571428 -0.7693599642857143 -1.5366 -0.8168661428571428 -0.5971178571428571 -0.03528664285714286 -1.2101142857142857 -0.06559242857142857 -1.8350892857142855 -0.06559242857142857 -0.624975 0 -1.2380410714285714 0.030305785714285712 -1.8350892857142855 0.0655910357142857 -0.803817857142857 0.04750617857142857 -1.450632857142857 0.39045824999999995 -1.536669642857143 0.8168675357142857 -0.06351428571428572 0.3147857142857143 -0.11715321428571429 0.6379564285714285 -0.11715321428571429 0.967422857142857 0 0.3294803571428571 0.053638928571428574 0.6526510714285714 0.11715321428571429 0.9674367857142857 0.0860367857142857 0.42639535714285715 0.7328517857142857 0.7693585714285713 1.536669642857143 0.8168689285714286 0.5970482142857142 0.035281071428571426 1.2101142857142857 0.06558964285714286 1.8350892857142855 0.06558964285714286 0.624975 0 1.2379714285714285 -0.030308571428571428 1.8350892857142855 -0.06558964285714286 0.803817857142857 -0.047510357142857146 1.4506607142857144 -0.39047357142857136 1.5366 -0.8168689285714286 0.06351428571428572 -0.3147857142857143 0.11727857142857141 -0.6379564285714285 0.11727857142857141 -0.9674367857142857 0 -0.32946642857142855 -0.053764285714285716 -0.6526371428571428 -0.11727857142857141 -0.967422857142857Z" stroke-width="1.5"></path>
    <path id="Intersect_3" fill="#73f66854" d="M1.2410231785714285 8.917252499999998c0.08584875 1.1799728571428572 0.73122075 2.1290239285714283 1.5332557500000001 2.2604957142857143 0.5957250000000001 0.0976392857142857 1.2073703571428571 0.18150321428571428 1.8309942857142856 0.18150321428571428 0.6236239285714286 0 1.2352692857142857 -0.08386392857142856 1.8309942857142856 -0.18150321428571428 0.8020349999999999 -0.13147178571428572 1.4474014285714287 -1.0805228571428571 1.5332571428571429 -2.2604957142857143 0.063375 -0.8710789285714285 0.11688857142857141 -1.7653907142857141 0.11688857142857141 -2.6771271428571426 0 -0.9117503571428571 -0.05351357142857143 -1.8060482142857144 -0.11688857142857141 -2.6771271428571426 -0.08585571428571429 -1.1799867857142856 -0.7312360714285714 -2.129037857142857 -1.5332571428571429 -2.2605026785714286C5.840542499999999 1.2048506785714286 5.228897142857143 1.1209853571428572 4.605273214285714 1.1209853571428572c-0.6236239285714286 0 -1.2352692857142857 0.08386532142857142 -1.8309942857142856 0.18151017857142854C1.9722439285714284 1.433960357142857 1.3268719285714285 2.3830114285714283 1.2410217857142856 3.5629982142857144 1.1776467857142856 4.434077142857142 1.1241304285714286 5.328374999999999 1.1241304285714286 6.2401253571428565c0 0.9117364285714286 0.053516357142857136 1.8060482142857144 0.11689274999999999 2.6771271428571426Z" stroke-width="1.5"></path>
    <path id="Intersect_4" fill="#73f66854" d="M18.28905 10.63921392857143c-0.0859392857142857 -1.1792207142857143 -0.7327821428571428 -2.1276589285714285 -1.5366 -2.259047142857143 -0.5971178571428571 -0.09758357142857142 -1.2101142857142857 -0.1813917857142857 -1.8350892857142855 -0.1813917857142857 -0.624975 0 -1.2380410714285714 0.08380821428571428 -1.8350892857142855 0.1813917857142857 -0.803817857142857 0.1313882142857143 -1.450632857142857 1.0798264285714285 -1.536669642857143 2.259047142857143 -0.06352821428571429 0.8705217857142857 -0.11715321428571429 1.7642485714285714 -0.11715321428571429 2.6754 0 0.9111932142857143 0.053625 1.8048503571428571 0.11715321428571429 2.675386071428571 0.0860367857142857 1.1791928571428572 0.7328517857142857 2.1277285714285714 1.536669642857143 2.2590749999999997 0.5970482142857142 0.0975 1.2101142857142857 0.18135 1.8350892857142855 0.18135 0.624975 0 1.2379714285714285 -0.08385 1.8350892857142855 -0.18135 0.803817857142857 -0.13134642857142856 1.4506607142857144 -1.0798821428571428 1.5366 -2.2590749999999997 0.06351428571428572 -0.8705357142857142 0.11727857142857141 -1.764192857142857 0.11727857142857141 -2.675386071428571 0 -0.9111514285714285 -0.053764285714285716 -1.804878214285714 -0.11727857142857141 -2.6754Z" stroke-width="1.5"></path>
    <path id="Intersect_5" stroke="#26de3a" stroke-linecap="round" stroke-linejoin="round" d="M1.2411081428571427 8.917252499999998c0.08584875 1.1799728571428572 0.7312332857142857 2.1290239285714283 1.533254357142857 2.2604957142857143 0.5957250000000001 0.0976392857142857 1.2073842857142858 0.18150321428571428 1.8309942857142856 0.18150321428571428 0.6236239285714286 0 1.2352692857142857 -0.08386392857142856 1.8309942857142856 -0.18150321428571428 0.8020349999999999 -0.13147178571428572 1.4474014285714287 -1.0805228571428571 1.5332571428571429 -2.2604957142857143 0.063375 -0.8710789285714285 0.11688857142857141 -1.7653907142857141 0.11688857142857141 -2.6771271428571426 0 -0.9117503571428571 -0.05351357142857143 -1.8060482142857144 -0.11688857142857141 -2.6771271428571426 -0.08585571428571429 -1.1799867857142856 -0.7312221428571428 -2.129037857142857 -1.5332571428571429 -2.2605026785714286C5.840626071428571 1.2048506785714286 5.228980714285714 1.1209853571428572 4.605356785714285 1.1209853571428572c-0.62361 0 -1.2352692857142857 0.08386532142857142 -1.8309942857142856 0.18151017857142854C1.9723414285714285 1.433960357142857 1.3269568928571427 2.3830114285714283 1.24110675 3.5629982142857144c-0.063375 0.8710789285714285 -0.11689135714285713 1.7653767857142857 -0.11689135714285713 2.6771271428571426 0 0.9117364285714286 0.053516357142857136 1.8060482142857144 0.11689274999999999 2.6771271428571426Z" stroke-width="1.5"></path>
    <path id="Intersect_6" stroke="#26de3a" stroke-linecap="round" stroke-linejoin="round" d="M18.289189285714283 10.63921392857143c-0.0859392857142857 -1.1792207142857143 -0.7327821428571428 -2.1276589285714285 -1.5366 -2.259047142857143 -0.5971178571428571 -0.09758357142857142 -1.2101142857142857 -0.1813917857142857 -1.8350892857142855 -0.1813917857142857 -0.624975 0 -1.238055 0.08380821428571428 -1.8351032142857142 0.1813917857142857 -0.803817857142857 0.1313882142857143 -1.450632857142857 1.0798264285714285 -1.536669642857143 2.259047142857143 -0.06351428571428572 0.8705217857142857 -0.11715321428571429 1.7642485714285714 -0.11715321428571429 2.6754 0 0.9111932142857143 0.053638928571428574 1.8048503571428571 0.11715321428571429 2.675386071428571 0.0860367857142857 1.1791928571428572 0.7328517857142857 2.1277285714285714 1.536669642857143 2.2590749999999997 0.5970482142857142 0.0975 1.2101282142857142 0.18135 1.8351032142857142 0.18135s1.2379714285714285 -0.08385 1.8350892857142855 -0.18135c0.803817857142857 -0.13134642857142856 1.4506607142857144 -1.0798821428571428 1.5366 -2.2590749999999997 0.06351428571428572 -0.8705357142857142 0.1171392857142857 -1.764192857142857 0.1171392857142857 -2.675386071428571 0 -0.9111514285714285 -0.053625 -1.804878214285714 -0.1171392857142857 -2.6754Z" stroke-width="1.5"></path>
    <path id="Intersect_7" stroke="#26de3a" stroke-linecap="round" stroke-linejoin="round" d="M1.2410231785714285 17.54805c0.08584875 0.4263535714285714 0.73122075 0.7692749999999999 1.5332557500000001 0.8167714285714286 0.5957250000000001 0.035378571428571426 1.2073703571428571 0.06560357142857143 1.8309942857142856 0.06560357142857143 0.62361 0 1.2352692857142857 -0.030225 1.8309942857142856 -0.06560357142857143 0.8020210714285715 -0.047496428571428564 1.4474014285714287 -0.3904178571428571 1.5332571428571429 -0.8167714285714286 0.063375 -0.3147857142857143 0.11688857142857141 -0.6380678571428571 0.11688857142857141 -0.9674785714285714 0 -0.32955 -0.05351357142857143 -0.6526928571428572 -0.11688857142857141 -0.9674785714285714 -0.08585571428571429 -0.4263535714285714 -0.7312360714285714 -0.7692749999999999 -1.5332571428571429 -0.8167714285714286 -0.5957250000000001 -0.035378571428571426 -1.2073842857142858 -0.06560357142857143 -1.8309942857142856 -0.06560357142857143 -0.6236239285714286 0 -1.2352692857142857 0.030225 -1.8309942857142856 0.06560357142857143 -0.8020349999999999 0.047496428571428564 -1.4474069999999999 0.3904178571428571 -1.5332571428571429 0.8167714285714286 -0.063375 0.3147857142857143 -0.11689135714285713 0.6379285714285714 -0.11689135714285713 0.9674785714285714 0 0.3294107142857143 0.053516357142857136 0.6526928571428572 0.11689274999999999 0.9674785714285714Z" stroke-width="1.5"></path>
    <path id="Intersect_8" stroke="#26de3a" stroke-linecap="round" stroke-linejoin="round" d="M18.28905 2.0034439285714285c-0.0859392857142857 -0.4264092857142857 -0.7327821428571428 -0.7693599642857143 -1.5366 -0.8168661428571428 -0.5971178571428571 -0.03528664285714286 -1.2101142857142857 -0.06559242857142857 -1.8350892857142855 -0.06559242857142857 -0.624975 0 -1.2380410714285714 0.030305785714285712 -1.8350892857142855 0.0655910357142857 -0.803817857142857 0.04750617857142857 -1.450632857142857 0.39045824999999995 -1.536669642857143 0.8168675357142857 -0.06351428571428572 0.3147857142857143 -0.11715321428571429 0.6379564285714285 -0.11715321428571429 0.967422857142857 0 0.3294803571428571 0.053638928571428574 0.6526510714285714 0.11715321428571429 0.9674367857142857 0.0860367857142857 0.42639535714285715 0.7328517857142857 0.7693585714285713 1.536669642857143 0.8168689285714286 0.5970482142857142 0.035281071428571426 1.2101142857142857 0.06558964285714286 1.8350892857142855 0.06558964285714286 0.624975 0 1.2379714285714285 -0.030308571428571428 1.8350892857142855 -0.06558964285714286 0.803817857142857 -0.047510357142857146 1.4506607142857144 -0.39047357142857136 1.5366 -0.8168689285714286 0.06351428571428572 -0.3147857142857143 0.11727857142857141 -0.6379564285714285 0.11727857142857141 -0.9674367857142857 0 -0.32946642857142855 -0.053764285714285716 -0.6526371428571428 -0.11727857142857141 -0.967422857142857Z" stroke-width="1.5"></path>
  </g>
</svg>